# xmcd
# 
# Track frame offsets:
#     183
#     15275
#     29370
#     42135
#     57618
#     70075
#     83998
#     96483
#     110263
#     124200
#     135745
# 
# Disc length: 2011
# 
# Revision: 3
# Processed by: cddbd v1.5.2PL0 Copyright (c) Steve Scherf et al.
# Submitted via: fre:ac v1.1beta1pre4
# 
DISCID=9207d90b
DTITLE=Tom T Hall - Greatest Hits
DYEAR=1972
DGENRE=Country
TTITLE0=Homecoming
TTITLE1=Shoeshine Man
TTITLE2=I Miss A Lot Of Trains
TTITLE3=Salute To A Switchblade
TTITLE4=I Washed My Face In The Morning Dew
TTITLE5=Ballad Of Forty Dollars
TTITLE6=The Year That Clayton Delaney Died
TTITLE7=That's How I Got To Memphis
TTITLE8=A Week In A Country Jail
TTITLE9=One Hundred Children
TTITLE10=Me And Jesus
EXTD=
EXTT0=
EXTT1=
EXTT2=
EXTT3=
EXTT4=
EXTT5=
EXTT6=
EXTT7=
EXTT8=
EXTT9=
EXTT10=
PLAYORDER=
